# xmcd
#
# Track frame offsets: 
#        150
#        11570
#        25345
#        38592
#        53157
#        67300
#        80260
#        92985
#        106172
#        119545
#        132812
#        145230
#        156687
#        170410
#        185320
#        197365
#        211287
#        224230
#        238140
#        250485
#        265130
#
# Disc length: 3709 seconds
#
# Revision: 2
# Processed by: cddbd v1.5.1PL0 Copyright (c) Steve Scherf et al.
# Submitted via: ExactAudioCopy v0.90b4
#
DISCID=3a0e7b15
DTITLE=Nat King Cole - Ballads Of The Day
DYEAR=1956
DGENRE=Vocal
TTITLE0=A Blossom Fell
TTITLE1=Unbelievable
TTITLE2=Blue Gardenia
TTITLE3=Angel Eyes
TTITLE4=It Happens To Be Me
TTITLE5=Smile
TTITLE6=Darling, Je Vous Aime Beaucoup
TTITLE7=Alone Too Long
TTITLE8=My One Sin
TTITLE9=Return To Paradise
TTITLE10=If Love Is Good To Me
TTITLE11=The Sand And The Sea
TTITLE12=If I May
TTITLE13=United
TTITLE14=I Envy
TTITLE15=Why Can't We Try Again?
TTITLE16=Why
TTITLE17=I'll Never Settle For Less
TTITLE18=Marilyin
TTITLE19=For A Moment Of Your Love
TTITLE20=I'll Always Be Remembering
EXTD=
EXTT0=
EXTT1=
EXTT2=
EXTT3=
EXTT4=
EXTT5=
EXTT6=
EXTT7=
EXTT8=
EXTT9=
EXTT10=
EXTT11=
EXTT12=
EXTT13=
EXTT14=
EXTT15=
EXTT16=
EXTT17=
EXTT18=
EXTT19=
EXTT20=
PLAYORDER=
